<svg width="40" height="40" viewBox="0 0 40 40" fill="none" xmlns="http://www.w3.org/2000/svg">
<rect width="40" height="40" rx="20" fill="#333333"/>
<path fill-rule="evenodd" clip-rule="evenodd" d="M33.5719 13.7023C32.3744 11.857 29.9845 11.1978 28.0094 12.1667C25.9004 13.239 25.0592 15.8163 26.1282 17.925C26.7389 19.127 27.8795 19.9729 29.2069 20.2072C29.0453 25.2903 24.7929 29.2828 19.7072 29.1213C14.7686 28.9651 10.8328 24.9395 10.7878 19.998C10.7798 16.1909 13.1458 12.7836 16.7173 11.4625C17.4035 11.215 17.8009 10.4962 17.642 9.78269L17.6314 9.739C17.4565 8.95799 17.9467 8.18493 18.7256 8.00887C18.7892 7.99563 18.8541 7.98504 18.919 7.97975C19.2767 7.94665 19.6383 7.92944 20 7.92944C20.4478 7.92944 20.8968 7.95592 21.3406 8.00357C22.1461 8.09226 22.872 7.50982 22.9581 6.70631C22.9621 6.67983 22.9648 6.65071 22.9661 6.62423C22.9873 5.82602 22.3806 5.14958 21.5857 5.0834C21.0585 5.02647 20.5286 5 20 5C11.7164 5 5 11.7167 5 20.0007C5 28.286 11.7164 35 20 35C28.2849 35 35 28.286 35 20.0007C35 18.534 34.7046 15.3729 33.5719 13.7023Z" fill="white"/>
</svg>
