<svg width="26" height="26" viewBox="0 0 26 26" fill="none" xmlns="http://www.w3.org/2000/svg">
<path d="M25.1588 20.3141C8.60199 23.1253 2.95611 10.2368 12.9313 1C-1.71908 1.64443 -1.78959 15.9797 2.95611 20.9371C12.0425 30.4289 25.1588 20.3141 25.1588 20.3141Z" fill="black"/>
<path d="M16.4667 6.2C16.2457 6.2 16.1352 6.08606 16.1352 5.85817V3.89004H14.1982C13.9772 3.89004 13.8667 3.783 13.8667 3.56892C13.8667 3.35485 13.9772 3.24781 14.1982 3.24781H16.1352V1.34183C16.1352 1.11394 16.2457 1 16.4667 1C16.6877 1 16.7982 1.11394 16.7982 1.34183V3.24781H18.7352C18.9562 3.24781 19.0667 3.35485 19.0667 3.56892C19.0667 3.783 18.9562 3.89004 18.7352 3.89004H16.7982V5.85817C16.7982 6.08606 16.6877 6.2 16.4667 6.2Z" fill="black"/>
<path d="M22.9665 9.53353C22.7823 9.53353 22.6902 9.43858 22.6902 9.24867V7.60856H21.076C20.8919 7.60856 20.7998 7.51936 20.7998 7.34097C20.7998 7.16257 20.8919 7.07337 21.076 7.07337H22.6902V5.48506C22.6902 5.29515 22.7823 5.2002 22.9665 5.2002C23.1506 5.2002 23.2427 5.29515 23.2427 5.48506V7.07337H24.8569C25.0411 7.07337 25.1331 7.16257 25.1331 7.34097C25.1331 7.51936 25.0411 7.60856 24.8569 7.60856H23.2427V9.24867C23.2427 9.43858 23.1506 9.53353 22.9665 9.53353Z" fill="black"/>
<path d="M14.3 13.8665C14.1158 13.8665 14.0237 13.7716 14.0237 13.5817V11.9416H12.4095C12.2254 11.9416 12.1333 11.8524 12.1333 11.674C12.1333 11.4956 12.2254 11.4064 12.4095 11.4064H14.0237V9.81806C14.0237 9.62816 14.1158 9.5332 14.3 9.5332C14.4841 9.5332 14.5762 9.62816 14.5762 9.81806V11.4064H16.1904C16.3746 11.4064 16.4666 11.4956 16.4666 11.674C16.4666 11.8524 16.3746 11.9416 16.1904 11.9416H14.5762V13.5817C14.5762 13.7716 14.4841 13.8665 14.3 13.8665Z" fill="black"/>
<path d="M23.1667 18.3333C22.9825 18.3333 22.8904 18.2384 22.8904 18.0485V16.4084H21.2762C21.0921 16.4084 21 16.3192 21 16.1408C21 15.9624 21.0921 15.8732 21.2762 15.8732H22.8904V14.2849C22.8904 14.095 22.9825 14 23.1667 14C23.3508 14 23.4429 14.095 23.4429 14.2849V15.8732H25.0571C25.2413 15.8732 25.3333 15.9624 25.3333 16.1408C25.3333 16.3192 25.2413 16.4084 25.0571 16.4084H23.4429V18.0485C23.4429 18.2384 23.3508 18.3333 23.1667 18.3333Z" fill="black"/>
</svg>
